<svg width="35" height="35" viewBox="0 0 35 35" fill="none" xmlns="http://www.w3.org/2000/svg">
<path d="M15.1587 12.2106C15.4599 12.4971 15.4599 12.9725 15.1646 13.2647L11.5804 16.7535H25.2383C25.6575 16.7535 26 17.0858 26 17.4982C26 17.9107 25.6575 18.243 25.2383 18.243H11.5804L15.1705 21.7318C15.4658 22.024 15.4599 22.4937 15.1646 22.7859C14.8635 23.0723 14.3852 23.0723 14.0841 22.7802L9.21848 18.0253C9.15353 17.9565 9.10038 17.8821 9.05905 17.7904C9.01771 17.6988 9 17.6014 9 17.504C9 17.3092 9.07676 17.1259 9.21848 16.9827L14.0841 12.2278C14.3734 11.9299 14.8576 11.9242 15.1587 12.2106V12.2106Z" fill="#27272A" stroke="#27272A"/>
</svg>
