<svg width="30" height="30" viewBox="0 0 30 30" fill="none" xmlns="http://www.w3.org/2000/svg">
<rect width="30" height="30" rx="15" fill="#01AC67"/>
<g clip-path="url(#clip0_35_22)">
<path fill-rule="evenodd" clip-rule="evenodd" d="M15.6345 22.7383C15.673 16.8686 14.77 14.009 18.0256 12.0794C18.6967 11.6816 19.9397 10.7828 20.5706 10.6118C20.6367 11.7749 20.7406 17.2419 20.434 17.9107C20.1839 18.4562 16.9686 20.1994 16.3259 20.5802L16.3277 22.2976C17.288 21.8062 18.2898 21.1422 19.2122 20.5841C20.2559 19.9526 21.2254 19.629 21.6892 18.3494C22.0175 17.4433 21.9221 9.64415 21.8649 8.08162C21.3444 8.20194 16.5739 11.1223 15.9263 11.8313C13.828 14.1287 14.3965 16.8445 14.3499 20.9316C13.6696 20.7096 11.7954 19.4285 10.9323 18.9256C10.6919 18.7855 10.0325 18.4416 9.81757 18.2574C9.18899 17.7188 9.396 15.8971 9.39515 14.7267C9.39417 13.3793 9.35491 11.9444 9.41025 10.6082C9.83541 10.7151 12.6178 12.42 13.0923 12.8633C13.4704 13.2166 13.6686 13.7267 13.9999 14.0587L14.5886 12.576C13.7189 11.0419 11.6068 10.1622 9.89396 9.0736C9.54974 8.85486 8.49397 8.17402 8.11925 8.07697C8.07602 10.0928 8.10845 12.1704 8.11287 14.1919C8.11739 16.2635 7.81341 18.2207 8.90185 19.3575C9.35081 19.8263 12.9459 21.8995 13.9624 22.5102C14.8309 23.0318 14.8283 23.3595 15.6345 22.7383L15.6345 22.7383Z" fill="#F5F7FB"/>
</g>
<defs>
<clipPath id="clip0_35_22">
<rect width="13.8462" height="15" fill="white" transform="translate(8.0769 8.0769)"/>
</clipPath>
</defs>
</svg>
