<svg width="36" height="36" viewBox="0 0 36 36" fill="none" xmlns="http://www.w3.org/2000/svg">
<g clip-path="url(#clip0_66_2)">
<path fill-rule="evenodd" clip-rule="evenodd" d="M18.7614 27.2859C18.8075 20.2423 17.7239 16.8108 21.6307 14.4953C22.436 14.0179 23.9276 12.9393 24.6846 12.7341C24.7639 14.1298 24.8886 20.6902 24.5207 21.4928C24.2206 22.1475 20.3622 24.2393 19.591 24.6962L19.5932 26.7571C20.7455 26.1674 21.9477 25.3706 23.0546 24.7009C24.307 23.9431 25.4705 23.5547 26.0269 22.0193C26.421 20.9319 26.3064 11.5729 26.2378 9.69791C25.6133 9.84229 19.8886 13.3468 19.1115 14.1976C16.5935 16.9544 17.2758 20.2133 17.2198 25.1179C16.4035 24.8514 14.1544 23.3141 13.1187 22.7106C12.8301 22.5426 12.0389 22.1299 11.781 21.9089C11.0267 21.2626 11.2751 19.0765 11.2741 17.672C11.2729 16.0552 11.2258 14.3333 11.2922 12.7298C11.8024 12.8581 15.1413 14.904 15.7106 15.4359C16.1644 15.8599 16.4022 16.472 16.7998 16.8704L17.5063 15.0912C16.4626 13.2502 13.9281 12.1946 11.8727 10.8883C11.4596 10.6258 10.1927 9.80878 9.74303 9.69232C9.69115 12.1113 9.73007 14.6044 9.73538 17.0303C9.7408 19.5162 9.37602 21.8648 10.6821 23.2289C11.2209 23.7916 15.535 26.2794 16.7548 27.0122C17.797 27.6382 17.7939 28.0314 18.7613 27.2859L18.7614 27.2859Z" fill="#E6E8EB"/>
</g>
<defs>
<clipPath id="clip0_66_2">
<rect width="16.6154" height="18" fill="white" transform="translate(9.69226 9.69226)"/>
</clipPath>
</defs>
</svg>
